<?xml version="1.0" encoding="UTF-8" standalone="no"?>
<!DOCTYPE svg PUBLIC "-//W3C//DTD SVG 1.1//EN"
 "http://www.w3.org/Graphics/SVG/1.1/DTD/svg11.dtd">
<!-- Generated by graphviz version 2.40.1 (20161225.0304)
 -->
<!-- Title: sdn Pages: 1 -->
<svg width="142pt" height="140pt"
 viewBox="0.00 0.00 142.00 140.00" xmlns="http://www.w3.org/2000/svg" xmlns:xlink="http://www.w3.org/1999/xlink">
<g id="graph0" class="graph" transform="scale(1 1) rotate(0) translate(4 136)">
<title>sdn</title>
<!-- a -->
<g id="node1" class="node">
<title>a</title>
<ellipse fill="#000000" stroke="#000000" cx="64.9158" cy="-69.1316" rx="18" ry="18"/>
</g>
<!-- b -->
<g id="node2" class="node">
<title>b</title>
<ellipse fill="#000000" stroke="#000000" cx="116.0453" cy="-37.947" rx="18" ry="18"/>
</g>
<!-- a&#45;&#45;b -->
<g id="edge1" class="edge">
<title>a&#45;&#45;b</title>
<path fill="none" stroke="#000000" stroke-width="6" d="M80.5342,-59.6057C86.8776,-55.7368 94.189,-51.2775 100.5226,-47.4145"/>
</g>
<!-- d -->
<g id="node3" class="node">
<title>d</title>
<ellipse fill="#000000" stroke="#000000" cx="65.7782" cy="-17.6758" rx="18" ry="18"/>
</g>
<!-- a&#45;&#45;d -->
<g id="edge5" class="edge">
<title>a&#45;&#45;d</title>
<path fill="none" stroke="#000000" stroke-width="6" d="M65.2223,-50.8453C65.3036,-45.9924 65.3914,-40.753 65.4727,-35.9032"/>
</g>
<!-- c -->
<g id="node4" class="node">
<title>c</title>
<ellipse fill="#000000" stroke="#000000" cx="17.954" cy="-50.8477" rx="18" ry="18"/>
</g>
<!-- a&#45;&#45;c -->
<g id="edge3" class="edge">
<title>a&#45;&#45;c</title>
<path fill="none" stroke="#000000" stroke-width="6" d="M47.9615,-62.5307C43.7579,-60.8941 39.2511,-59.1394 35.0411,-57.5003"/>
</g>
<!-- e -->
<g id="node5" class="node">
<title>e</title>
<ellipse fill="#000000" stroke="#000000" cx="101.4409" cy="-114.0579" rx="18" ry="18"/>
</g>
<!-- a&#45;&#45;e -->
<g id="edge6" class="edge">
<title>a&#45;&#45;e</title>
<path fill="none" stroke="#000000" stroke-width="6" d="M76.4726,-83.3466C80.8198,-88.6936 85.7556,-94.7648 90.0844,-100.0892"/>
</g>
<!-- b&#45;&#45;d -->
<g id="edge2" class="edge">
<title>b&#45;&#45;d</title>
<path fill="none" stroke="#000000" stroke-width="6" d="M99.3071,-31.197C93.9378,-29.0318 87.991,-26.6336 82.6147,-24.4655"/>
</g>
<!-- c&#45;&#45;d -->
<g id="edge4" class="edge">
<title>c&#45;&#45;d</title>
<path fill="none" stroke="#000000" stroke-width="6" d="M32.8237,-40.5338C38.527,-36.5778 45.0352,-32.0636 50.7529,-28.0977"/>
</g>
</g>
</svg>
